<svg width="36" height="36" viewBox="0 0 36 36" fill="none" xmlns="http://www.w3.org/2000/svg">
<path d="M18.3426 16.259H14.6583C14.3338 16.259 14.0708 16.519 14.0708 16.8396V31.3069C14.0708 31.6275 14.3338 31.8875 14.6583 31.8875H18.3426C18.6671 31.8875 18.9302 31.6275 18.9302 31.3069V16.8396C18.9302 16.5189 18.6672 16.259 18.3426 16.259ZM17.7551 30.7262H15.2458V17.4203H17.7551V30.7262ZM11.5013 20.0807H7.81692C7.49246 20.0807 7.22939 20.3407 7.22939 20.6614V31.3069C7.22939 31.6275 7.49246 31.8875 7.81692 31.8875H11.5013C11.8258 31.8875 12.0889 31.6275 12.0889 31.3069V20.6614C12.0889 20.3407 11.8258 20.0807 11.5013 20.0807ZM10.9138 30.7262H8.40446V21.242H10.9138V30.7262ZM4.65989 23.7407H0.975468C0.651003 23.7407 0.387935 24.0007 0.387935 24.3213V31.3068C0.387935 31.6274 0.651003 31.8874 0.975468 31.8874H4.65981C4.98428 31.8874 5.24735 31.6274 5.24735 31.3068V24.3213C5.24742 24.0006 4.98435 23.7407 4.65989 23.7407ZM4.07235 30.7261H1.563V24.902H4.07228L4.07235 30.7261ZM0.587696 21.4536C0.344678 21.4536 0.117302 21.3035 0.0328444 21.0638C-0.0738663 20.761 0.0879991 20.43 0.394471 20.3245C9.2436 17.2789 17.0294 12.8506 23.5599 7.15472L22.2691 7.22397C21.945 7.24088 21.6682 6.99577 21.6506 6.67562C21.6331 6.35539 21.8814 6.08176 22.2055 6.06434L25.1521 5.90626C25.328 5.8969 25.4989 5.96585 25.6177 6.09446C25.7365 6.223 25.7907 6.39742 25.7653 6.56972L25.3401 9.45561C25.2975 9.74455 25.0464 9.95264 24.7594 9.95264C24.7313 9.95264 24.7028 9.95068 24.674 9.94654C24.3529 9.90031 24.1305 9.60563 24.1772 9.28831L24.3671 7.99949C17.7157 13.8081 9.78832 18.3211 0.780774 21.4212C0.716953 21.4433 0.651811 21.4536 0.587696 21.4536ZM26.4263 3.67977L27.9349 4.87815L27.4272 6.72403C27.3445 7.0243 27.4558 7.33647 27.7105 7.51937C27.843 7.61452 27.9971 7.66235 28.1517 7.66235C28.2942 7.66235 28.4371 7.62164 28.5634 7.53991L30.1828 6.49221L31.8022 7.53991C32.0656 7.71026 32.4004 7.70227 32.655 7.51944C32.9097 7.33654 33.021 7.02444 32.9384 6.72403L32.4306 4.87823L33.9392 3.67992C34.1846 3.48504 34.2804 3.16786 34.1831 2.87188C34.0857 2.57589 33.8197 2.37484 33.5053 2.35975L31.5721 2.26655L30.8852 0.478307C30.7735 0.187694 30.4979 0 30.1829 0C29.8678 0 29.5922 0.187694 29.4807 0.478235L28.7937 2.26648L26.8605 2.3596C26.5459 2.3747 26.2799 2.57575 26.1826 2.87173C26.0852 3.16779 26.181 3.48497 26.4263 3.67977ZM29.1278 3.41311C29.4263 3.39874 29.6877 3.21112 29.7936 2.93517L30.1828 1.92201L30.5721 2.93531C30.6783 3.21126 30.9396 3.39881 31.2378 3.41311L32.3331 3.46588L31.4784 4.1448C31.2455 4.32973 31.1457 4.63341 31.2241 4.91822L31.5118 5.96389L30.594 5.37018C30.344 5.20862 30.0213 5.20869 29.7714 5.37033L28.854 5.96389L29.1417 4.91822C29.2201 4.63319 29.1202 4.32952 28.8874 4.1448L28.0327 3.46588L29.1278 3.41311ZM35.6236 26.2184L34.6261 25.8388C34.4748 25.3137 34.263 24.8086 33.9935 24.3308L34.4277 23.3648C34.5264 23.1453 34.4781 22.8884 34.3062 22.7186L32.8292 21.2588C32.7667 21.1971 32.6924 21.152 32.6126 21.1236V9.96367C32.6126 9.64301 32.3496 9.38303 32.0251 9.38303H28.3407C28.0162 9.38303 27.7532 9.64301 27.7532 9.96367V19.5848H26.6507C26.4076 19.5848 26.1897 19.7327 26.1024 19.9568L25.7715 20.8065V13.4017C25.7715 13.081 25.5084 12.821 25.184 12.821H21.4995C21.1751 12.821 20.912 13.081 20.912 13.4017V25.3869C20.8579 25.5358 20.8082 25.6863 20.7643 25.8388L19.7667 26.2184C19.5398 26.3046 19.3902 26.52 19.3902 26.7602V28.8246C19.3902 29.0648 19.5399 29.2802 19.7667 29.3665L20.7642 29.7459C20.8082 29.8986 20.8579 30.0494 20.912 30.1985V31.3068C20.912 31.5025 21.0102 31.6751 21.1602 31.7803L20.9626 32.22C20.8639 32.4395 20.9122 32.6964 21.0841 32.8663L22.5612 34.326C22.7331 34.4959 22.9931 34.5436 23.2151 34.4461L24.193 34.0169C24.6763 34.283 25.1873 34.4924 25.7184 34.6419L26.1024 35.628C26.1897 35.8522 26.4076 36 26.6507 36H28.7396C28.9827 36 29.2006 35.8521 29.2879 35.628L29.6718 34.6422C30.2032 34.4926 30.7144 34.2832 31.1977 34.0169L32.1752 34.446C32.3973 34.5435 32.6572 34.4958 32.8292 34.3259L34.3062 32.8662C34.4781 32.6963 34.5264 32.4395 34.4277 32.2199L33.9934 31.2535C34.2627 30.7759 34.4745 30.2709 34.6258 29.746L35.6235 29.3665C35.8504 29.2803 36 29.0648 36 28.8246V26.7602C36.0001 26.5201 35.8504 26.3047 35.6236 26.2184ZM31.4375 10.5443V21.4625L31.1973 21.568C30.7139 21.3018 30.203 21.0924 29.6719 20.943L29.2879 19.9568C29.2241 19.7931 29.0903 19.6708 28.9282 19.6163V10.5443H31.4375ZM24.5964 13.9823V21.3626C24.46 21.4269 24.3253 21.4951 24.1929 21.568L23.215 21.1388C22.9929 21.0413 22.7329 21.0891 22.5611 21.2589L22.087 21.7274V13.9823H24.5964ZM34.825 28.426L33.9226 28.7692C33.7418 28.8379 33.607 28.9904 33.5621 29.1767C33.4144 29.7901 33.1694 30.3741 32.8339 30.9127C32.7323 31.0758 32.7186 31.2777 32.7972 31.4527L33.19 32.3269L32.2835 33.2228L31.3993 32.8348C31.2222 32.757 31.0178 32.7705 30.8528 32.871C30.3079 33.2027 29.7168 33.4449 29.0958 33.5908C28.9073 33.6351 28.7531 33.7684 28.6835 33.9471L28.3361 34.8388H27.0541L26.7068 33.9469C26.6372 33.7682 26.483 33.635 26.2945 33.5906C25.6738 33.4446 25.0828 33.2025 24.538 32.8709C24.3729 32.7706 24.1686 32.7569 23.9914 32.8346L23.1069 33.2229L22.2002 32.327L22.5929 31.4532C22.6716 31.2782 22.6579 31.0761 22.5563 30.9131C22.2207 30.3746 21.9757 29.7904 21.8279 29.1766C21.783 28.9904 21.6482 28.8379 21.4674 28.7691L20.5653 28.426V27.1589L21.4676 26.8157C21.6484 26.747 21.7832 26.5945 21.8281 26.4082C21.9758 25.7948 22.2209 25.2106 22.5564 24.6721C22.658 24.509 22.6717 24.3069 22.5931 24.132L22.2003 23.2579L23.1069 22.3619L23.9915 22.7502C24.1686 22.8279 24.373 22.8144 24.538 22.7139C25.0829 22.3823 25.674 22.1402 26.2945 21.9942C26.483 21.9499 26.6373 21.8166 26.7068 21.6379L27.0542 20.7461H28.3363L28.6837 21.6379C28.7532 21.8166 28.9074 21.9499 29.096 21.9942C29.7166 22.1402 30.3076 22.3823 30.8525 22.7139C31.0175 22.8143 31.222 22.8278 31.399 22.7502L32.2836 22.3619L33.1902 23.2579L32.7975 24.1317C32.7188 24.3067 32.7326 24.5088 32.8342 24.6719C33.1698 25.2104 33.4149 25.7946 33.5626 26.4083C33.6074 26.5945 33.7423 26.747 33.9231 26.8158L34.8252 27.159V28.426H34.825ZM27.6951 23.6115C25.3623 23.6115 23.4645 25.4871 23.4645 27.7925C23.4645 30.0978 25.3623 31.9734 27.6951 31.9734C30.0278 31.9734 31.9256 30.0978 31.9256 27.7925C31.9256 25.4871 30.0278 23.6115 27.6951 23.6115ZM27.6951 30.8121C26.0103 30.8121 24.6396 29.4575 24.6396 27.7925C24.6396 26.1275 26.0102 24.7728 27.6951 24.7728C29.3799 24.7728 30.7505 26.1274 30.7505 27.7925C30.7505 29.4574 29.3799 30.8121 27.6951 30.8121Z" fill="url(#paint0_linear_128_590)"/>
<defs>
<linearGradient id="paint0_linear_128_590" x1="18" y1="0" x2="18" y2="36" gradientUnits="userSpaceOnUse">
<stop stop-color="#FE4519"/>
<stop offset="1" stop-color="#F27935"/>
</linearGradient>
</defs>
</svg>
