<svg width="36" height="34" viewBox="0 0 36 34" fill="none" xmlns="http://www.w3.org/2000/svg">
<path d="M13.7204 4.15518L15.4498 5.58735L14.8677 7.79338C14.7837 8.11173 14.8968 8.44272 15.1558 8.63663C15.4149 8.83062 15.7553 8.83915 16.0233 8.65847L17.8796 7.40638L19.736 8.65847C19.8645 8.74514 20.0097 8.78822 20.1546 8.78822C20.3118 8.78822 20.4686 8.73752 20.6034 8.63656C20.8624 8.44265 20.9755 8.11166 20.8915 7.79338L20.3094 5.58742L22.0388 4.15525C22.2884 3.94855 22.3857 3.61225 22.2868 3.29846C22.1878 2.98467 21.9172 2.77154 21.5974 2.75554L19.3813 2.64426L18.5938 0.507105C18.4803 0.199073 18.2 0 17.8797 0C17.5593 0 17.2789 0.198998 17.1654 0.50703L16.3779 2.64418L14.1619 2.75546C13.8421 2.77146 13.5716 2.9846 13.4726 3.29839C13.3736 3.61218 13.4708 3.94848 13.7204 4.15518ZM16.6941 3.82628C16.9975 3.8111 17.2632 3.61218 17.3712 3.31948L17.8795 1.93988L18.3879 3.3194C18.4956 3.6121 18.7614 3.8111 19.0649 3.82628L20.4955 3.89815L19.3792 4.82262C19.1423 5.01877 19.0408 5.34072 19.1206 5.64269L19.4963 7.06671L18.2979 6.25838C18.0438 6.08705 17.7154 6.08698 17.4612 6.25845L16.2628 7.06671L16.6385 5.64276C16.7183 5.34049 16.6167 5.01855 16.38 4.82269L15.2636 3.89815L16.6941 3.82628ZM6.03114 8.57456L8.22377 8.92395L8.79025 11.1343C8.87197 11.4533 9.13057 11.6816 9.44905 11.7161C9.47663 11.719 9.504 11.7205 9.53114 11.7205C9.81797 11.7205 10.0789 11.5571 10.2107 11.2881L11.2107 9.24739L13.426 9.37534C13.7453 9.39404 14.0364 9.21089 14.1666 8.90952C14.2968 8.60814 14.2341 8.26317 14.0069 8.03081L12.4324 6.42028L13.235 4.28904C13.3509 3.98153 13.272 3.64015 13.034 3.41939C12.7961 3.1987 12.4583 3.15338 12.1735 3.30422L10.2004 4.34954L8.48128 2.90458C8.23349 2.69623 7.89411 2.66834 7.61664 2.83338C7.33917 2.99851 7.19299 3.31529 7.24423 3.64037L7.59936 5.89688L5.73422 7.13499C5.46502 7.31364 5.33409 7.63761 5.40071 7.96037C5.46727 8.28306 5.71477 8.52416 6.03114 8.57456ZM8.44673 6.75778C8.70221 6.58832 8.8359 6.27917 8.78727 5.97002L8.55807 4.51331L9.66781 5.44623C9.90311 5.64404 10.2298 5.67948 10.5 5.53635L11.7738 4.86158L11.2556 6.23729C11.1457 6.52917 11.2139 6.86023 11.4295 7.08077L12.4459 8.12041L11.0158 8.03777C10.7122 8.02117 10.4283 8.18951 10.2913 8.4689L9.64567 9.78628L9.27994 8.35926C9.20235 8.05669 8.9582 7.83025 8.65815 7.78246L7.24271 7.55691L8.44673 6.75778ZM8.72471 12.4621C8.69125 12.134 8.46952 11.8676 8.16004 11.7835L6.01488 11.1999L5.67579 8.9407C5.62687 8.61472 5.39288 8.35971 5.0797 8.29114C4.76673 8.22256 4.4521 8.35739 4.27871 8.63476L3.07708 10.5565L0.886997 10.1906C0.571349 10.1379 0.263975 10.2885 0.10372 10.5743C-0.056463 10.8602 -0.0293183 11.2099 0.172743 11.4651L1.57534 13.2364L0.560898 15.2694C0.414433 15.5628 0.458198 15.9108 0.672453 16.156C0.886707 16.4012 1.21803 16.4827 1.51655 16.3632L3.58507 15.5363L5.14821 17.1586C5.29562 17.3116 5.48977 17.3923 5.6882 17.3922C5.7933 17.3922 5.8997 17.3697 6.00095 17.3232C6.29351 17.1891 6.47097 16.8896 6.45312 16.5601L6.32886 14.2776L8.30955 13.2472C8.59523 13.0983 8.75824 12.7902 8.72471 12.4621ZM5.57338 13.3302C5.30208 13.4712 5.13776 13.7644 5.15481 14.077L5.23502 15.5503L4.2258 14.5029C4.07962 14.3513 3.88351 14.2704 3.68363 14.2704C3.5908 14.2704 3.49717 14.2878 3.40739 14.3237L2.07222 14.8576L2.72696 13.5453C2.86595 13.2669 2.83169 12.9302 2.63957 12.6877L1.73415 11.5442L3.14807 11.7804C3.44811 11.8305 3.74808 11.6927 3.9124 11.4297L4.68813 10.1891L4.90703 11.6475C4.95341 11.9568 5.17318 12.2084 5.46691 12.2883L6.85172 12.6651L5.57338 13.3302ZM23.3268 6.42043L21.7522 8.03096C21.525 8.26332 21.4623 8.60829 21.5925 8.90967C21.7228 9.21112 22.0141 9.39449 22.3331 9.37549L24.5483 9.24754L25.5483 11.2882C25.6802 11.5572 25.9411 11.7207 26.2279 11.7206C26.2551 11.7206 26.2826 11.7191 26.3101 11.7161C26.6286 11.6817 26.8871 11.4532 26.9688 11.1343L27.5352 8.92403L29.7278 8.57471C30.0442 8.52431 30.2917 8.28321 30.3583 7.96052C30.4248 7.63775 30.294 7.31379 30.0248 7.13514L28.1596 5.89703L28.5147 3.64059C28.5659 3.31536 28.4197 2.99858 28.1423 2.83353C27.8648 2.66841 27.5253 2.69638 27.2777 2.90465L25.5585 4.34984L23.5854 3.30459C23.3007 3.15368 22.9629 3.19885 22.7249 3.41961C22.4869 3.64037 22.408 3.98176 22.5238 4.28934L23.3268 6.42043ZM24.5035 6.23737L23.9853 4.86158L25.2589 5.5362C25.5291 5.67948 25.856 5.64411 26.0913 5.44616L27.2011 4.51324L26.9718 5.97009C26.9233 6.27917 27.057 6.58832 27.3122 6.75763L28.5163 7.55691L27.1007 7.78246C26.8006 7.8304 26.5565 8.05676 26.479 8.35934L26.1133 9.7862L25.4676 8.46875C25.3371 8.20267 25.0729 8.03657 24.786 8.03657C24.7717 8.03657 24.7574 8.03695 24.743 8.03784L23.313 8.12041L24.3295 7.08062C24.5451 6.86001 24.6134 6.52894 24.5035 6.23737ZM30.0832 8.94078L29.7442 11.2L27.5991 11.7836C27.2895 11.8677 27.0679 12.1342 27.0344 12.4622C27.0009 12.7903 27.1639 13.0984 27.4498 13.2472L29.4303 14.2776L29.3061 16.5601C29.2882 16.8895 29.4657 17.189 29.7582 17.3231C29.8596 17.3697 29.9659 17.3922 30.0711 17.3922C30.2695 17.3922 30.4636 17.3116 30.611 17.1586L32.1741 15.5363L34.2424 16.3633C34.5408 16.4827 34.8723 16.4015 35.0866 16.1562C35.3009 15.911 35.3448 15.563 35.1983 15.2697L34.1838 13.2365L35.5864 11.4652C35.7885 11.2099 35.8156 10.8602 35.6553 10.5743C35.4951 10.2885 35.1878 10.1384 34.8721 10.1906L32.682 10.5565L31.4805 8.63476C31.3071 8.35747 30.9927 8.22263 30.6794 8.29114C30.3662 8.35971 30.1322 8.61472 30.0832 8.94078ZM30.8521 11.6477L31.071 10.1893L31.8466 11.4297C32.0111 11.693 32.3112 11.8307 32.6111 11.7806L34.0249 11.5444L33.1195 12.6879C32.9274 12.9304 32.8931 13.267 33.032 13.5454L33.6869 14.8578L32.3517 14.324C32.0684 14.2107 31.747 14.2811 31.5331 14.5032L30.5241 15.5505L30.6042 14.0772C30.6213 13.7646 30.457 13.4714 30.1859 13.3304L28.9073 12.6652L30.2923 12.2884C30.5859 12.2084 30.8056 11.957 30.8521 11.6477ZM29.5398 19.7685C27.4769 19.7685 25.6367 20.7701 24.4531 22.326C23.3561 21.1748 22.006 20.3414 20.5298 19.8857C21.9091 18.9801 22.8267 17.3913 22.8267 15.5848C22.8267 12.7742 20.6074 10.4875 17.8796 10.4875C15.1518 10.4875 12.9325 12.7742 12.9325 15.5848C12.9325 17.3913 13.8501 18.9803 15.2296 19.8857C13.9307 20.287 12.7243 20.982 11.7 21.9364C10.0162 23.5053 8.95646 25.6449 8.71585 27.9611C8.69829 28.1298 8.7512 28.2983 8.8613 28.4246C8.97141 28.5509 9.1284 28.623 9.29315 28.623L23.442 28.6229C24.3252 31.2163 26.7249 33.0811 29.5398 33.0811C33.102 33.0811 36 30.0951 36 26.4247C36 22.7544 33.1021 19.7685 29.5398 19.7685ZM14.0938 15.5849C14.0938 13.434 15.7921 11.6841 17.8796 11.6841C19.9671 11.6841 21.6654 13.434 21.6654 15.5849C21.6654 17.7358 19.9671 19.4857 17.8796 19.4857C15.7921 19.4857 14.0938 17.7358 14.0938 15.5849ZM9.96516 27.4266C10.6758 23.5379 13.9708 20.6822 17.8795 20.6822C20.1428 20.6822 22.2807 21.654 23.8058 23.3614C23.3421 24.279 23.0796 25.3208 23.0796 26.4249C23.0796 26.7653 23.1047 27.0997 23.1527 27.4265L9.96516 27.4266ZM29.5398 31.8847C26.618 31.8847 24.2409 29.4355 24.2409 26.4249C24.2409 23.4142 26.6179 20.965 29.5398 20.965C32.4618 20.965 34.8388 23.4142 34.8388 26.4249C34.8388 29.4355 32.4618 31.8847 29.5398 31.8847ZM33.2674 23.5559C32.9934 23.2752 32.6302 23.1209 32.2439 23.1209C32.242 23.1209 32.24 23.1209 32.2381 23.1209C31.8503 23.1224 31.4866 23.2795 31.214 23.5632L28.7656 26.1111L27.8645 25.1826C27.5901 24.8999 27.2254 24.7442 26.8373 24.7442C26.4492 24.7442 26.0843 24.8999 25.81 25.1826C25.2437 25.7662 25.2437 26.7158 25.81 27.2994L27.7423 29.2903C28.0256 29.5821 28.3975 29.728 28.7696 29.728C29.1416 29.728 29.5136 29.5821 29.7968 29.2903C30.5291 28.5358 31.2677 27.7639 31.9819 27.0174C32.4123 26.5676 32.8427 26.1179 33.2742 25.6692C33.8367 25.0841 33.8337 24.1362 33.2674 23.5559ZM32.4493 24.827C32.0171 25.2763 31.586 25.7269 31.155 26.1774C30.4422 26.9223 29.705 27.6927 28.9756 28.4442C28.862 28.5613 28.6771 28.5613 28.5634 28.4442L26.6311 26.4533C26.5175 26.3362 26.5175 26.1457 26.6311 26.0286C26.7053 25.9522 26.7921 25.9407 26.8372 25.9407C26.8824 25.9407 26.969 25.9522 27.0433 26.0286L28.357 27.3822C28.4659 27.4944 28.6136 27.5574 28.7676 27.5574H28.7691C28.9235 27.5571 29.0715 27.4932 29.1802 27.3801L32.0392 24.405C32.1121 24.3291 32.198 24.3175 32.2426 24.3174C32.2896 24.3196 32.3742 24.3283 32.4485 24.4044C32.5615 24.5203 32.5619 24.7099 32.4493 24.827Z" fill="url(#paint0_linear_128_582)"/>
<defs>
<linearGradient id="paint0_linear_128_582" x1="18" y1="30" x2="18.8967" y2="0.0268228" gradientUnits="userSpaceOnUse">
<stop stop-color="#FE4519"/>
<stop offset="1" stop-color="#F27935"/>
</linearGradient>
</defs>
</svg>
