<svg width="30" height="35" viewBox="0 0 30 35" fill="none" xmlns="http://www.w3.org/2000/svg">
<path d="M5.55239 16.5854C5.40734 16.3937 5.44505 16.12 5.63724 15.9755L11.9874 11.17C12.0991 11.085 12.2448 11.0596 12.379 11.1017L18.5457 13.018L23.713 7.59165H22.9573C22.7172 7.59165 22.5221 7.39632 22.5221 7.15597C22.5221 6.91562 22.7172 6.7203 22.9573 6.7203H24.729C24.9691 6.7203 25.1641 6.91562 25.1641 7.15597V8.9299C25.1641 9.17024 24.9691 9.36557 24.729 9.36557C24.489 9.36557 24.2939 9.17024 24.2939 8.9299V8.24443L18.9888 13.8138C18.8749 13.9336 18.703 13.9787 18.5449 13.9293L12.334 11.9992L6.16158 16.6697C6.08326 16.7292 5.99115 16.7575 5.89977 16.7575C5.76778 16.7583 5.63796 16.6987 5.55239 16.5854ZM30 25.9336C30 26.1739 29.8049 26.3693 29.5649 26.3693H23.354L23.3373 27.571C23.3315 28.0052 23.0291 28.3639 22.6033 28.4438L21.6642 28.6188C21.6497 28.6217 21.6475 28.6232 21.6424 28.6377C21.5394 28.918 21.4183 29.1968 21.2827 29.4647C21.2762 29.4778 21.2762 29.4807 21.2841 29.4938L21.7962 30.3012C22.029 30.6679 21.9724 31.1334 21.6591 31.434L19.4827 33.5231C19.1694 33.8237 18.7023 33.86 18.3462 33.6116L17.5622 33.0656C17.5499 33.0569 17.547 33.0569 17.534 33.0627C17.3273 33.1571 17.1141 33.2428 16.9023 33.3176C16.8885 33.3226 16.8863 33.3248 16.8834 33.3393L16.6949 34.2768C16.6093 34.7023 16.2467 35 15.813 35H12.7975C12.3638 35 12.0012 34.703 11.9156 34.2768L11.7277 33.3393C11.7248 33.3248 11.7227 33.3226 11.7089 33.3176C11.4275 33.2181 11.1476 33.1012 10.8778 32.969C10.8647 32.9625 10.8611 32.9632 10.8488 32.9712L10.0496 33.4955C9.68694 33.7336 9.22062 33.6835 8.91602 33.3742L6.79906 31.2241C6.49446 30.9148 6.45168 30.4479 6.6939 30.0878L7.2284 29.2956C7.2371 29.2832 7.2371 29.2803 7.23058 29.2665C7.10366 28.9964 6.99052 28.7147 6.89479 28.4293C6.88972 28.4155 6.88754 28.4133 6.87376 28.4104L5.93966 28.2085C5.51613 28.1171 5.22386 27.7496 5.23038 27.3154L5.24344 26.3693H0.43514C0.195088 26.3693 0 26.1739 0 25.9336V0.435676C0 0.195328 0.195088 0 0.43514 0C0.675192 0 0.87028 0.195328 0.87028 0.435676V25.4979H3.87637V19.5016C3.87637 19.2612 4.07146 19.0659 4.31151 19.0659H7.78175C8.02181 19.0659 8.21689 19.2612 8.21689 19.5016V25.4979H10.0786V15.4353C10.0786 15.1949 10.2737 14.9996 10.5137 14.9996H13.9847C14.2247 14.9996 14.4198 15.1949 14.4198 15.4353V25.4979H16.2815V17.358C16.2815 17.1177 16.4766 16.9224 16.7166 16.9224H20.1869C20.4269 16.9224 20.622 17.1177 20.622 17.358V25.4986H22.4837V11.7393C22.4837 11.4989 22.6788 11.3036 22.9188 11.3036H26.3891C26.6291 11.3036 26.8242 11.4989 26.8242 11.7393V25.4986H29.5641C29.8056 25.4979 30 25.6932 30 25.9336ZM23.3547 25.4979H25.9547V12.175H23.3547V25.4979ZM17.1518 25.4979H19.7517V17.7937H17.1518V25.4979ZM10.6196 26.3693C10.8357 28.2136 12.4058 29.6499 14.3052 29.6499C16.2046 29.6499 17.7747 28.2136 17.9909 26.3693H10.6196ZM10.9496 25.4979H13.5495V15.8709H10.9496V25.4979ZM4.74665 25.4979H7.34661V19.9372H4.74665V25.4979ZM22.4837 26.3693H18.8662C18.6465 28.695 16.6847 30.5213 14.3052 30.5213C11.9257 30.5213 9.96398 28.695 9.74424 26.3693H6.11444L6.10066 27.3278C6.10066 27.3437 6.10792 27.3532 6.12387 27.3568L7.05797 27.5587C7.37127 27.6262 7.61858 27.8484 7.72083 28.1519C7.80569 28.4053 7.90649 28.6551 8.01891 28.8955C8.15525 29.1859 8.12987 29.5177 7.95073 29.7835L7.41624 30.5757C7.40681 30.5895 7.40826 30.6011 7.41986 30.6127L9.53682 32.7628C9.5477 32.7744 9.56003 32.7751 9.5738 32.7664L10.373 32.2422C10.6413 32.0664 10.9728 32.0454 11.2607 32.1863C11.5008 32.3039 11.7488 32.4077 11.999 32.4963C12.3014 32.6031 12.519 32.8543 12.5821 33.168L12.7699 34.1054C12.7728 34.1214 12.7822 34.1286 12.7982 34.1286H15.8137C15.8297 34.1286 15.8391 34.1214 15.842 34.1054L16.0306 33.168C16.0937 32.8536 16.3112 32.6031 16.6129 32.4963C16.8015 32.4295 16.99 32.354 17.1743 32.2698C17.4658 32.1369 17.7965 32.1674 18.0598 32.3504L18.8437 32.8971C18.8568 32.9066 18.8684 32.9059 18.8807 32.8942L21.0571 30.8052C21.0688 30.7943 21.0702 30.7819 21.0615 30.7689L20.5495 29.9614C20.3776 29.6906 20.3617 29.358 20.506 29.0719C20.6264 28.8337 20.7337 28.5869 20.8251 28.3378C20.936 28.0372 21.1899 27.8222 21.5046 27.7634L22.4438 27.5884C22.4598 27.5855 22.4677 27.5761 22.4677 27.5601L22.4837 26.3693ZM16.9016 7.65555C16.655 7.65555 16.4461 7.49725 16.4461 7.30918C16.4461 7.06884 16.251 6.87351 16.011 6.87351C15.7709 6.87351 15.5758 7.06884 15.5758 7.30918C15.5758 7.84071 15.9486 8.29381 16.4664 8.45937V8.88851C16.4664 9.12886 16.6615 9.32418 16.9016 9.32418C17.1416 9.32418 17.3367 9.12886 17.3367 8.88851V8.45937C17.8545 8.29381 18.2273 7.84071 18.2273 7.30918C18.2273 6.63607 17.6384 6.37684 17.2091 6.18732C17.167 6.16844 17.1242 6.14956 17.0814 6.13068C17.0365 6.11035 16.9908 6.09002 16.9458 6.07041C16.6535 5.94189 16.4468 5.84314 16.4468 5.74583C16.4468 5.55849 16.6557 5.39947 16.9023 5.39947C17.1489 5.39947 17.3577 5.55777 17.3577 5.74583C17.3577 5.98618 17.5528 6.18151 17.7929 6.18151C18.0329 6.18151 18.228 5.98618 18.228 5.74583C18.228 5.21431 17.8552 4.76121 17.3374 4.59565V4.16651C17.3374 3.92616 17.1423 3.73084 16.9023 3.73084C16.6622 3.73084 16.4671 3.92616 16.4671 4.16651V4.59565C15.9493 4.76121 15.5766 5.21431 15.5766 5.74583C15.5766 6.41895 16.1655 6.67891 16.5955 6.86843C16.6376 6.8873 16.6804 6.90618 16.7232 6.92506C16.7688 6.9454 16.8138 6.96573 16.8588 6.98533C17.151 7.11386 17.3577 7.21261 17.3577 7.30991C17.357 7.49652 17.1481 7.65555 16.9016 7.65555ZM12.7743 6.52715C12.7743 4.24856 14.6258 2.39476 16.9016 2.39476C19.1773 2.39476 21.0289 4.24856 21.0289 6.52715C21.0289 8.80573 19.1773 10.6595 16.9016 10.6595C14.6258 10.6595 12.7743 8.805 12.7743 6.52715ZM13.6445 6.52715C13.6445 8.32503 15.1059 9.78818 16.9016 9.78818C18.6972 9.78818 20.1586 8.32503 20.1586 6.52715C20.1586 4.72926 18.6972 3.26611 16.9016 3.26611C15.1059 3.26611 13.6445 4.72853 13.6445 6.52715Z" fill="url(#paint0_linear_128_586)"/>
<defs>
<linearGradient id="paint0_linear_128_586" x1="15" y1="0" x2="15" y2="35" gradientUnits="userSpaceOnUse">
<stop stop-color="#FE4519"/>
<stop offset="1" stop-color="#F27935"/>
</linearGradient>
</defs>
</svg>
