<svg width="31" height="35" viewBox="0 0 31 35" fill="none" xmlns="http://www.w3.org/2000/svg">
<path d="M30.678 22.2753C30.3795 21.7773 29.1567 20.2971 25.9529 22.1618L20.389 25.4007C20.1597 25.5342 19.9271 25.6348 19.6866 25.7033C19.7646 25.5556 19.8278 25.3941 19.8746 25.2196C20.1674 24.1273 19.5188 22.9873 18.398 22.6242C18.3743 22.6165 18.35 22.6104 18.3254 22.6059C16.7314 22.3186 15.1558 21.7493 13.8898 21.2919C13.4487 21.1325 13.0321 20.982 12.6773 20.867C11.2302 20.3978 9.92741 20.9753 8.84403 21.6023L4.75782 23.9668L4.39785 23.3311C4.21751 23.0127 3.92313 22.7833 3.56884 22.6851C3.21477 22.587 2.84405 22.6323 2.52547 22.8124L0.964464 23.6954C0.305188 24.0684 0.0724406 24.9078 0.445515 25.5667L5.03507 33.6715C5.21541 33.9899 5.50979 34.2193 5.86407 34.3175C5.98658 34.3514 6.11103 34.3682 6.23458 34.3682C6.46837 34.3682 6.69904 34.3081 6.90745 34.1902L8.46859 33.3072C9.12787 32.9342 9.36069 32.0948 8.98754 31.4359L8.5441 30.6529L9.41352 30.1512L16.5153 32.053C16.9139 32.1598 17.3103 32.2129 17.7004 32.2128C18.4893 32.2128 19.2514 31.9957 19.9481 31.5671L30.0452 25.3532C30.9924 24.7704 31.294 23.3033 30.678 22.2753ZM7.92212 32.3423L6.36098 33.2253C6.2791 33.2717 6.20013 33.26 6.16026 33.2491C6.12046 33.2381 6.04676 33.2073 6.00045 33.1255L1.41089 25.0206C1.34024 24.8959 1.38607 24.7309 1.5108 24.6603L3.07187 23.7773C3.11743 23.7515 3.16214 23.7437 3.19965 23.7437C3.22953 23.7437 3.25491 23.7487 3.27259 23.7536C3.31239 23.7646 3.38602 23.7953 3.4324 23.8772L8.02203 31.982C8.09268 32.1067 8.04685 32.2717 7.92212 32.3423ZM17.4082 26.7464L18.1002 26.8589C19.1494 27.0266 20.0807 26.863 20.9472 26.3587L26.5112 23.1199C28.0801 22.2065 29.2821 22.1037 29.7263 22.8449C30.0304 23.3525 29.8978 24.1419 29.4634 24.4091L19.3663 30.623C18.5804 31.1065 17.7179 31.2274 16.8023 30.9821L9.47855 29.0209C9.33649 28.983 9.18514 29.0028 9.05771 29.0762L7.99762 29.6879L5.30422 24.9316L9.39979 22.5617C10.3155 22.0318 11.3049 21.5873 12.335 21.9215C12.6723 22.0308 13.0617 22.1715 13.5126 22.3344C14.8073 22.8022 16.4161 23.3835 18.0879 23.6895C18.636 23.8832 18.9426 24.4119 18.8029 24.9326C18.619 25.6184 18.0434 25.7033 17.5845 25.651C16.7687 25.4831 15.9923 25.2617 15.1708 25.0272C14.7798 24.9157 14.3755 24.8002 13.9597 24.6889C13.664 24.6098 13.3597 24.7852 13.2804 25.0808C13.2011 25.3766 13.3767 25.6805 13.6726 25.7598C14.0796 25.8688 14.4795 25.9829 14.8661 26.0932C15.7166 26.3359 16.5199 26.5652 17.386 26.7422M3.49487 25.2896C3.53938 25.594 3.32861 25.8769 3.02397 25.9214C2.71939 25.9659 2.43638 25.7552 2.39187 25.4507C2.34736 25.1463 2.55813 24.8635 2.86277 24.819C3.16734 24.7745 3.45036 24.9852 3.49487 25.2896ZM11.6759 8.65801C11.9325 9.15816 12.0613 9.40914 12.0981 9.61785C12.1349 9.82649 12.0998 10.1064 12.0299 10.664C12.0123 10.8043 11.9927 10.9606 11.9717 11.1362C11.8561 12.1019 12.3796 13.008 13.2742 13.391C13.4368 13.4607 13.582 13.5218 13.7124 13.5767C13.7361 13.5867 13.7587 13.5963 13.7814 13.6058L11.7198 18.0311C11.6326 18.2183 11.6567 18.4384 11.7824 18.6024C11.9081 18.7662 12.1145 18.8468 12.3181 18.8111L14.5841 18.4155L15.7398 20.4032C15.8393 20.5744 16.0224 20.679 16.2193 20.679C16.2277 20.679 16.2361 20.6788 16.2445 20.6784C16.4509 20.6691 16.635 20.5458 16.7222 20.3586L18.7687 15.9656L18.7282 15.9468C19.0787 15.8409 19.2854 15.7876 19.4549 15.7876C19.6669 15.7876 19.9366 15.8707 20.474 16.0365C20.5303 16.0539 20.59 16.0722 20.652 16.0913L22.1289 19.5182C22.2106 19.7079 22.391 19.8364 22.5971 19.8517C22.6109 19.8527 22.6247 19.8532 22.6384 19.8532C22.8292 19.8532 23.008 19.7549 23.1096 19.5912L24.3225 17.6378L26.5759 18.0991C26.7784 18.1405 26.9871 18.066 27.1174 17.9059C27.2478 17.7457 27.2783 17.5264 27.1966 17.3367L25.518 13.4414C25.5562 13.4252 25.5954 13.4084 25.6357 13.3912C26.5303 13.0083 27.0538 12.102 26.9382 11.1363C26.9172 10.9607 26.8977 10.8045 26.8801 10.6642C26.81 10.1066 26.775 9.82669 26.8118 9.61798C26.8486 9.40935 26.9774 9.1583 27.2339 8.65822C27.2985 8.53238 27.3704 8.39227 27.4503 8.23449C27.8893 7.36647 27.7075 6.33602 26.9979 5.67047C26.8689 5.54942 26.7535 5.44236 26.6498 5.34618C26.2375 4.9639 26.0306 4.77209 25.9245 4.58854C25.8185 4.40505 25.7557 4.13003 25.6307 3.58214C25.5992 3.44425 25.5642 3.29069 25.5238 3.1185C25.3019 2.17148 24.4998 1.49893 23.5282 1.44495C23.3515 1.43511 23.1942 1.42735 23.0529 1.42029C22.4912 1.39236 22.2093 1.37829 22.0101 1.30581C21.8108 1.23333 21.5858 1.06301 21.1377 0.72362C21.0249 0.638252 20.8993 0.543183 20.7577 0.437165C19.9786 -0.145722 18.9317 -0.145722 18.1526 0.437165C18.0109 0.543183 17.8854 0.638252 17.7726 0.72362C17.3243 1.06301 17.0994 1.23333 16.9002 1.30581C16.7009 1.37829 16.4191 1.39236 15.8574 1.42029C15.7161 1.42735 15.5587 1.43511 15.3821 1.44495C14.4104 1.499 13.6084 2.17155 13.3864 3.1185C13.3461 3.29069 13.3111 3.44418 13.2795 3.58207C13.1545 4.13003 13.0917 4.40498 12.9856 4.58854C12.8796 4.77202 12.6727 4.9639 12.2605 5.34611C12.1568 5.44229 12.0413 5.54942 11.9122 5.6704C11.2026 6.33602 11.0208 7.3664 11.4598 8.23442C11.5394 8.39213 11.6113 8.53224 11.6759 8.65801ZM16.1651 18.9278L15.349 17.5243C15.2323 17.3236 15.003 17.2169 14.774 17.2568L13.174 17.5362L14.7555 14.1412C14.8864 14.2869 15.0325 14.5128 15.2736 14.8859C15.3503 15.0048 15.4358 15.1371 15.5327 15.2851C15.9442 15.914 16.6248 16.2705 17.3427 16.2705C17.363 16.2705 17.3836 16.2689 17.4039 16.2683L16.1651 18.9278ZM24.1663 16.474C23.9387 16.4275 23.7062 16.5275 23.5838 16.7248L22.7274 18.1041L21.9238 16.2395C22.5054 16.1419 23.0347 15.8085 23.3771 15.2851C23.4739 15.1371 23.5594 15.0049 23.6361 14.8861C23.9412 14.4139 24.0943 14.1769 24.2567 14.0407C24.3201 13.9876 24.3987 13.9384 24.5014 13.8853L25.7574 16.7997L24.1663 16.474ZM12.6711 6.4787C12.7984 6.3593 12.9123 6.25363 13.0148 6.15877C13.9993 5.24598 14.0621 5.13706 14.3609 3.82854C14.392 3.69252 14.4265 3.54112 14.4664 3.37121C14.5767 2.9003 14.9603 2.57865 15.4435 2.55176C15.6178 2.54206 15.773 2.53437 15.9124 2.52737C17.2537 2.46064 17.3719 2.41761 18.4423 1.6071C18.5535 1.52284 18.6775 1.42902 18.8173 1.32445C19.011 1.17949 19.233 1.10708 19.4551 1.10708C19.6771 1.10708 19.8991 1.17949 20.0928 1.32445C20.2326 1.42895 20.3565 1.52277 20.4677 1.60703C21.5381 2.41754 21.6563 2.4605 22.9976 2.5273C23.1371 2.53423 23.2922 2.54192 23.4665 2.55169C23.9498 2.57858 24.3333 2.90023 24.4437 3.37114C24.4835 3.54105 24.5181 3.69252 24.5491 3.82854C24.8478 5.13699 24.9107 5.24592 25.8953 6.1587C25.9976 6.25356 26.1115 6.35924 26.2388 6.47863C26.5917 6.80964 26.6787 7.30244 26.4603 7.73413C26.3815 7.88983 26.3106 8.02807 26.2469 8.15217C25.6342 9.3465 25.6123 9.47032 25.7794 10.8021C25.7968 10.9404 25.8161 11.0945 25.8368 11.2678C25.8943 11.748 25.644 12.1814 25.1991 12.3718C25.0386 12.4405 24.8954 12.5008 24.7667 12.555C23.5292 13.0762 23.4328 13.157 22.7043 14.2845C22.6286 14.4017 22.5443 14.5322 22.4487 14.6782C22.1839 15.0829 21.7135 15.2541 21.2501 15.1143C21.083 15.0637 20.9345 15.018 20.8011 14.9768C19.518 14.5812 19.3922 14.5811 18.1088 14.9768C17.9754 15.018 17.8269 15.0637 17.6598 15.1143C17.1967 15.2542 16.726 15.083 16.4612 14.6782C16.3656 14.5322 16.2813 14.4017 16.2055 14.2845C15.4771 13.157 15.3807 13.0762 14.1431 12.555C14.0145 12.5008 13.8713 12.4405 13.7108 12.3718C13.2659 12.1814 13.0156 11.748 13.0731 11.2677C13.0938 11.0945 13.1131 10.9403 13.1305 10.8019C13.2976 9.47018 13.2758 9.34643 12.663 8.15204C12.5993 8.02793 12.5284 7.88976 12.4496 7.73406C12.2313 7.30251 12.3182 6.8097 12.6711 6.4787ZM19.4548 13.2178C22.2592 13.2178 24.5407 10.9376 24.5407 8.13485C24.5407 5.33211 22.2592 3.05198 19.4548 3.05198C16.6505 3.05198 14.3691 5.33218 14.3691 8.13485C14.3691 10.9376 16.6506 13.2178 19.4548 13.2178ZM19.4548 4.16059C21.6475 4.16059 23.4314 5.94341 23.4314 8.13478C23.4314 10.3262 21.6475 12.109 19.4548 12.109C17.2622 12.109 15.4784 10.3262 15.4784 8.13478C15.4784 5.94334 17.2622 4.16059 19.4548 4.16059ZM18.0429 10.0992L16.6155 8.67249C16.3988 8.45602 16.3989 8.10506 16.6155 7.88859C16.8322 7.67205 17.1834 7.67212 17.3999 7.88859L18.4536 8.94183L21.5293 6.15212C21.7562 5.94632 22.1069 5.96337 22.3128 6.19009C22.5187 6.41682 22.5017 6.76744 22.2748 6.97317L18.8078 10.1177C18.7018 10.2138 18.5684 10.2616 18.4352 10.2616C18.2929 10.2615 18.1509 10.2071 18.0429 10.0992Z" fill="url(#paint0_linear_128_577)"/>
<defs>
<linearGradient id="paint0_linear_128_577" x1="16" y1="7.60483e-09" x2="15.6334" y2="34.3682" gradientUnits="userSpaceOnUse">
<stop stop-color="#FE4519"/>
<stop offset="1" stop-color="#F27935"/>
</linearGradient>
</defs>
</svg>
